<svg width="48" height="24" viewBox="0 0 48 24" fill="none" xmlns="http://www.w3.org/2000/svg">
<path d="M45.0459 12.796L38.2959 19.546C38.0846 19.7573 37.798 19.8761 37.4991 19.8761C37.2002 19.8761 36.9135 19.7573 36.7022 19.546C36.4908 19.3346 36.3721 19.048 36.3721 18.7491C36.3721 18.4502 36.4908 18.1636 36.7022 17.9522L41.5312 13.125H3.75C3.45163 13.125 3.16548 13.0065 2.9545 12.7955C2.74353 12.5846 2.625 12.2984 2.625 12C2.625 11.7017 2.74353 11.4155 2.9545 11.2045C3.16548 10.9936 3.45163 10.875 3.75 10.875H41.5312L36.7041 6.04504C36.4927 5.8337 36.374 5.54705 36.374 5.24817C36.374 4.94928 36.4927 4.66264 36.7041 4.45129C36.9154 4.23995 37.2021 4.12122 37.5009 4.12122C37.7998 4.12122 38.0865 4.23995 38.2978 4.45129L45.0478 11.2013C45.1527 11.3059 45.2359 11.4303 45.2926 11.5672C45.3493 11.7041 45.3784 11.8508 45.3782 11.999C45.3781 12.1472 45.3486 12.2939 45.2916 12.4307C45.2346 12.5674 45.1511 12.6916 45.0459 12.796Z" fill="#111111"/>
</svg>
