<svg width="88" height="88" viewBox="0 0 88 88" fill="none" xmlns="http://www.w3.org/2000/svg">
<circle cx="44" cy="44" r="42" stroke="#124234" stroke-width="4"/>
<circle cx="47.3" cy="44" r="35.8" stroke="#D76A4C"/>
<path d="M38.75 59C38.75 59.5968 38.513 60.1691 38.091 60.591C37.6691 61.013 37.0968 61.25 36.5 61.25H27.5C26.5788 61.2494 25.6739 61.0064 24.8763 60.5454C24.0786 60.0843 23.4164 59.4215 22.956 58.6235C22.4957 57.8255 22.2534 56.9204 22.2535 55.9992C22.2537 55.0779 22.4963 54.1729 22.9569 53.375L28.4788 43.835L27.5863 44.0732C27.2987 44.1565 26.9974 44.1816 26.7 44.147C26.4026 44.1124 26.1151 44.0188 25.8544 43.8717C25.5936 43.7246 25.3648 43.5269 25.1814 43.2902C24.998 43.0536 24.8637 42.7827 24.7864 42.4935C24.709 42.2042 24.6902 41.9025 24.7309 41.6059C24.7717 41.3092 24.8712 41.0237 25.0237 40.7661C25.1762 40.5084 25.3786 40.2838 25.619 40.1054C25.8594 39.9269 26.133 39.7983 26.4238 39.7269L32.5682 38.0825C33.1442 37.9284 33.7579 38.0094 34.2744 38.3075C34.7909 38.6056 35.1679 39.0966 35.3225 39.6725L36.9707 45.8169C37.0569 46.1051 37.0844 46.4077 37.0516 46.7068C37.0188 47.0058 36.9264 47.2953 36.7798 47.558C36.6332 47.8207 36.4354 48.0513 36.1982 48.2363C35.9609 48.4212 35.6889 48.5567 35.3984 48.6347C35.1078 48.7127 34.8046 48.7316 34.5066 48.6904C34.2086 48.6491 33.9219 48.5486 33.6634 48.3946C33.405 48.2406 33.18 48.0364 33.0019 47.7939C32.8237 47.5515 32.696 47.2758 32.6263 46.9832L32.39 46.0625L26.8588 55.625C26.7933 55.7384 26.7586 55.867 26.7583 55.998C26.7579 56.1289 26.7918 56.2577 26.8567 56.3715C26.9215 56.4853 27.0151 56.5801 27.1279 56.6465C27.2408 56.7129 27.3691 56.7486 27.5 56.75H36.5C37.0968 56.75 37.6691 56.9871 38.091 57.409C38.513 57.831 38.75 58.4033 38.75 59ZM44 26.75C44.1321 26.7476 44.2622 26.7812 44.3766 26.8473C44.4909 26.9134 44.585 27.0094 44.6488 27.125L50.1707 36.6632L49.28 36.425C48.9909 36.337 48.6869 36.3081 48.3864 36.3401C48.0858 36.372 47.7947 36.4643 47.5306 36.6112C47.2665 36.7582 47.0346 36.9569 46.849 37.1954C46.6633 37.4339 46.5276 37.7074 46.45 37.9995C46.3723 38.2917 46.3544 38.5965 46.3971 38.8957C46.4399 39.1949 46.5425 39.4825 46.6988 39.7412C46.8552 39.9999 47.062 40.2244 47.3071 40.4014C47.5521 40.5784 47.8303 40.7042 48.125 40.7713L54.2694 42.4194C54.8455 42.5735 55.4592 42.4926 55.9757 42.1945C56.4921 41.8963 56.8691 41.4053 57.0238 40.8294L58.6625 34.6813C58.8172 34.1044 58.7364 33.4898 58.4378 32.9725C58.29 32.7164 58.0932 32.4919 57.8586 32.3119C57.624 32.1318 57.3563 31.9997 57.0707 31.9232C56.4938 31.7685 55.8792 31.8493 55.3619 32.1479C54.8447 32.4464 54.4672 32.9382 54.3125 33.515L54.0669 34.4263L48.5432 24.875C48.0819 24.0786 47.4194 23.4174 46.622 22.9577C45.8246 22.4981 44.9204 22.2561 44 22.2561C43.0797 22.2561 42.1754 22.4981 41.3781 22.9577C40.5807 23.4174 39.9182 24.0786 39.4569 24.875L35.1144 32.375C34.9551 32.6312 34.849 32.9167 34.8022 33.2147C34.7555 33.5127 34.7691 33.817 34.8424 34.1096C34.9156 34.4022 35.0469 34.6771 35.2285 34.9179C35.4101 35.1587 35.6383 35.3606 35.8995 35.5115C36.1606 35.6624 36.4495 35.7592 36.7488 35.7963C37.0481 35.8333 37.3519 35.8098 37.6419 35.7271C37.932 35.6444 38.2025 35.5042 38.4373 35.3149C38.6721 35.1256 38.8664 34.891 39.0088 34.625L43.3513 27.125C43.4151 27.0094 43.5092 26.9134 43.6235 26.8473C43.7378 26.7812 43.868 26.7476 44 26.75ZM65.0357 53.375L60.6969 45.875C60.5546 45.6091 60.3602 45.3745 60.1254 45.1852C59.8906 44.9959 59.6201 44.8557 59.3301 44.773C59.04 44.6903 58.7363 44.6668 58.4369 44.7038C58.1376 44.7408 57.8487 44.8377 57.5876 44.9886C57.3264 45.1395 57.0983 45.3413 56.9167 45.5822C56.7351 45.823 56.6037 46.0979 56.5305 46.3905C56.4573 46.6831 56.4436 46.9874 56.4903 47.2854C56.5371 47.5834 56.6432 47.8689 56.8025 48.125L61.1413 55.625C61.2071 55.739 61.2417 55.8683 61.2418 55.9998C61.2418 56.1314 61.2072 56.2607 61.1415 56.3747C61.0757 56.4887 60.9812 56.5834 60.8673 56.6493C60.7534 56.7151 60.6241 56.7499 60.4925 56.75H49.4375L50.0957 56.0919C50.305 55.8826 50.471 55.6341 50.5842 55.3607C50.6975 55.0872 50.7558 54.7941 50.7558 54.4982C50.7558 54.2022 50.6975 53.9091 50.5842 53.6356C50.471 53.3622 50.305 53.1137 50.0957 52.9044C49.8864 52.6951 49.6379 52.5291 49.3644 52.4158C49.091 52.3026 48.7979 52.2443 48.5019 52.2443C48.2059 52.2443 47.9128 52.3026 47.6394 52.4158C47.3659 52.5291 47.1175 52.6951 46.9082 52.9044L42.4082 57.4044C42.1984 57.6134 42.032 57.8618 41.9184 58.1353C41.8048 58.4088 41.7464 58.702 41.7464 58.9982C41.7464 59.2943 41.8048 59.5875 41.9184 59.861C42.032 60.1345 42.1984 60.3829 42.4082 60.5919L46.9082 65.0919C47.1175 65.3012 47.3659 65.4672 47.6394 65.5805C47.9128 65.6938 48.2059 65.7521 48.5019 65.7521C48.7979 65.7521 49.091 65.6938 49.3644 65.5805C49.6379 65.4672 49.8864 65.3012 50.0957 65.0919C50.305 64.8826 50.471 64.6341 50.5842 64.3607C50.6975 64.0872 50.7558 63.7941 50.7558 63.4982C50.7558 63.2022 50.6975 62.9091 50.5842 62.6356C50.471 62.3622 50.305 62.1137 50.0957 61.9044L49.4375 61.25H60.5C61.4213 61.2494 62.3262 61.0064 63.1238 60.5454C63.9214 60.0843 64.5837 59.4215 65.044 58.6235C65.5044 57.8255 65.7467 56.9204 65.7465 55.9992C65.7464 55.0779 65.5038 54.1729 65.0432 53.375H65.0357Z" fill="#124234"/>
</svg>
