<svg width="80" height="80" viewBox="0 0 80 80" fill="none" xmlns="http://www.w3.org/2000/svg">
<path d="M40 7.5C33.5721 7.5 27.2886 9.40609 21.944 12.9772C16.5994 16.5484 12.4338 21.6242 9.97393 27.5628C7.51408 33.5014 6.87047 40.0361 8.12449 46.3404C9.37851 52.6448 12.4738 58.4358 17.019 62.981C21.5643 67.5262 27.3552 70.6215 33.6596 71.8755C39.964 73.1295 46.4986 72.4859 52.4372 70.0261C58.3758 67.5662 63.4516 63.4006 67.0228 58.056C70.5939 52.7114 72.5 46.4279 72.5 40C72.4909 31.3833 69.0639 23.122 62.9709 17.0291C56.878 10.9361 48.6168 7.5091 40 7.5ZM40 67.5C34.561 67.5 29.2442 65.8872 24.7218 62.8654C20.1995 59.8437 16.6747 55.5488 14.5933 50.5238C12.5119 45.4988 11.9673 39.9695 13.0284 34.635C14.0895 29.3005 16.7086 24.4005 20.5546 20.5546C24.4005 16.7086 29.3006 14.0895 34.635 13.0284C39.9695 11.9673 45.4988 12.5119 50.5238 14.5933C55.5488 16.6747 59.8437 20.1995 62.8654 24.7218C65.8872 29.2442 67.5 34.561 67.5 40C67.4917 47.2909 64.5918 54.2808 59.4363 59.4363C54.2809 64.5918 47.2909 67.4917 40 67.5ZM55.075 37.8813L35.075 25.3813C34.6967 25.1448 34.2619 25.0139 33.8159 25.0021C33.3699 24.9903 32.9289 25.0982 32.5386 25.3143C32.1484 25.5305 31.823 25.8472 31.5964 26.2315C31.3699 26.6159 31.2502 27.0538 31.25 27.5V52.5C31.2502 52.9462 31.3699 53.3841 31.5964 53.7685C31.823 54.1528 32.1484 54.4695 32.5386 54.6857C32.9289 54.9018 33.3699 55.0097 33.8159 54.9979C34.2619 54.9861 34.6967 54.8552 35.075 54.6187L55.075 42.1187C55.434 41.8939 55.73 41.5815 55.9352 41.2109C56.1404 40.8403 56.248 40.4236 56.248 40C56.248 39.5764 56.1404 39.1597 55.9352 38.7891C55.73 38.4185 55.434 38.1061 55.075 37.8813ZM36.25 47.9906V32.0094L49.0344 40L36.25 47.9906Z" fill="white"/>
</svg>
