<svg width="24" height="24" viewBox="0 0 24 24" fill="none" xmlns="http://www.w3.org/2000/svg">
<path d="M20.0306 14.4694L12.5306 6.96945C12.461 6.89971 12.3782 6.84439 12.2872 6.80665C12.1961 6.76891 12.0986 6.74948 12 6.74948C11.9014 6.74948 11.8038 6.76891 11.7128 6.80665C11.6217 6.84439 11.539 6.89971 11.4694 6.96945L3.96936 14.4694C3.82863 14.6102 3.74957 14.801 3.74957 15.0001C3.74957 15.1991 3.82863 15.39 3.96936 15.5307C4.1101 15.6714 4.30097 15.7505 4.49999 15.7505C4.69901 15.7505 4.88988 15.6714 5.03061 15.5307L12 8.56038L18.9694 15.5307C19.039 15.6004 19.1218 15.6557 19.2128 15.6934C19.3039 15.7311 19.4014 15.7505 19.5 15.7505C19.5985 15.7505 19.6961 15.7311 19.7872 15.6934C19.8782 15.6557 19.9609 15.6004 20.0306 15.5307C20.1003 15.461 20.1556 15.3783 20.1933 15.2872C20.231 15.1962 20.2504 15.0986 20.2504 15.0001C20.2504 14.9015 20.231 14.8039 20.1933 14.7129C20.1556 14.6219 20.1003 14.5391 20.0306 14.4694Z" fill="#111111"/>
</svg>
