<svg width="16" height="16" viewBox="0 0 16 16" fill="none" xmlns="http://www.w3.org/2000/svg">
<path d="M13.0306 5.53065C12.9609 5.60057 12.8782 5.65605 12.787 5.6939C12.6958 5.73176 12.5981 5.75124 12.4994 5.75124C12.4007 5.75124 12.3029 5.73176 12.2118 5.6939C12.1206 5.65605 12.0378 5.60057 11.9681 5.53065L10.25 3.81253V8.00003C10.248 9.78963 9.53622 11.5054 8.27078 12.7708C7.00534 14.0362 5.2896 14.748 3.5 14.75C3.30109 14.75 3.11032 14.671 2.96967 14.5304C2.82902 14.3897 2.75 14.1989 2.75 14C2.75 13.8011 2.82902 13.6103 2.96967 13.4697C3.11032 13.329 3.30109 13.25 3.5 13.25C4.89193 13.2485 6.22642 12.6949 7.21067 11.7107C8.19491 10.7264 8.74851 9.39196 8.75 8.00003V3.81253L7.03062 5.53065C6.96086 5.60042 6.87804 5.65576 6.78689 5.69351C6.69573 5.73127 6.59804 5.7507 6.49937 5.7507C6.30012 5.7507 6.10902 5.67155 5.96812 5.53065C5.89836 5.46089 5.84302 5.37806 5.80526 5.28691C5.76751 5.19576 5.74807 5.09806 5.74807 4.9994C5.74807 4.80014 5.82723 4.60905 5.96812 4.46815L8.96813 1.46815C9.0378 1.39823 9.1206 1.34275 9.21176 1.3049C9.30293 1.26704 9.40066 1.24756 9.49938 1.24756C9.59809 1.24756 9.69583 1.26704 9.78699 1.3049C9.87815 1.34275 9.96095 1.39823 10.0306 1.46815L13.0306 4.46815C13.1005 4.53783 13.156 4.62062 13.1939 4.71179C13.2317 4.80295 13.2512 4.90069 13.2512 4.9994C13.2512 5.09811 13.2317 5.19585 13.1939 5.28701C13.156 5.37818 13.1005 5.46097 13.0306 5.53065Z" fill="#111111"/>
</svg>
