<svg width="88" height="88" viewBox="0 0 88 88" fill="none" xmlns="http://www.w3.org/2000/svg">
<circle cx="44" cy="44" r="42" stroke="#124234" stroke-width="4"/>
<circle cx="47.3" cy="44" r="35.8" stroke="#D76A4C"/>
<path d="M55.25 29.315V26C55.25 25.0054 54.8549 24.0516 54.1517 23.3483C53.4484 22.6451 52.4946 22.25 51.5 22.25H36.5C35.5054 22.25 34.5516 22.6451 33.8483 23.3483C33.1451 24.0516 32.75 25.0054 32.75 26V29.315C31.0237 29.8063 29.5043 30.8465 28.4217 32.2781C27.3392 33.7098 26.7523 35.4551 26.75 37.25V57.5C26.7525 59.6873 27.6225 61.7843 29.1691 63.3309C30.7157 64.8775 32.8127 65.7475 35 65.75H53C55.1873 65.7475 57.2843 64.8775 58.8309 63.3309C60.3775 61.7843 61.2475 59.6873 61.25 57.5V37.25C61.2477 35.4551 60.6608 33.7098 59.5783 32.2781C58.4957 30.8465 56.9763 29.8063 55.25 29.315ZM50.75 29H46.25V26.75H50.75V29ZM41.75 26.75V29H37.25V26.75H41.75ZM56.75 57.5C56.75 58.4946 56.3549 59.4484 55.6517 60.1517C54.9484 60.8549 53.9946 61.25 53 61.25H35C34.0054 61.25 33.0516 60.8549 32.3483 60.1517C31.6451 59.4484 31.25 58.4946 31.25 57.5V37.25C31.25 36.2554 31.6451 35.3016 32.3483 34.5983C33.0516 33.8951 34.0054 33.5 35 33.5H53C53.9946 33.5 54.9484 33.8951 55.6517 34.5983C56.3549 35.3016 56.75 36.2554 56.75 37.25V57.5ZM51.5 50.375C51.4998 51.8018 50.9575 53.1753 49.9827 54.2172C49.0079 55.2592 47.6736 55.8918 46.25 55.9869V56.75C46.25 57.3467 46.0129 57.919 45.591 58.341C45.169 58.7629 44.5967 59 44 59C43.4033 59 42.831 58.7629 42.409 58.341C41.9871 57.919 41.75 57.3467 41.75 56.75V56H40.25C39.6533 56 39.081 55.7629 38.659 55.341C38.2371 54.919 38 54.3467 38 53.75C38 53.1533 38.2371 52.581 38.659 52.159C39.081 51.7371 39.6533 51.5 40.25 51.5H45.875C46.1734 51.5 46.4595 51.3815 46.6705 51.1705C46.8815 50.9595 47 50.6734 47 50.375C47 50.0766 46.8815 49.7905 46.6705 49.5795C46.4595 49.3685 46.1734 49.25 45.875 49.25H42.125C40.6672 49.2477 39.2672 48.6795 38.2201 47.6652C37.1731 46.6508 36.5607 45.2696 36.5121 43.8126C36.4634 42.3556 36.9824 40.9366 37.9595 39.8548C38.9366 38.7729 40.2956 38.1126 41.75 38.0131V38C41.75 37.4033 41.9871 36.831 42.409 36.409C42.831 35.9871 43.4033 35.75 44 35.75C44.5967 35.75 45.169 35.9871 45.591 36.409C46.0129 36.831 46.25 37.4033 46.25 38H47.75C48.3467 38 48.919 38.2371 49.341 38.659C49.7629 39.081 50 39.6533 50 40.25C50 40.8467 49.7629 41.419 49.341 41.841C48.919 42.2629 48.3467 42.5 47.75 42.5H42.125C41.8266 42.5 41.5405 42.6185 41.3295 42.8295C41.1185 43.0405 41 43.3266 41 43.625C41 43.9234 41.1185 44.2095 41.3295 44.4205C41.5405 44.6315 41.8266 44.75 42.125 44.75H45.875C47.3668 44.75 48.7976 45.3426 49.8525 46.3975C50.9074 47.4524 51.5 48.8832 51.5 50.375Z" fill="#124234"/>
</svg>
