<svg width="88" height="88" viewBox="0 0 88 88" fill="none" xmlns="http://www.w3.org/2000/svg">
<circle cx="44" cy="44" r="42" stroke="#124234" stroke-width="4"/>
<circle cx="47.3" cy="44" r="35.8" stroke="#D76A4C"/>
<path d="M62.2157 57.0706L50.75 37.9644V28.25H51.5C52.0968 28.25 52.6691 28.0129 53.091 27.591C53.513 27.169 53.75 26.5967 53.75 26C53.75 25.4033 53.513 24.831 53.091 24.409C52.6691 23.9871 52.0968 23.75 51.5 23.75H36.5C35.9033 23.75 35.331 23.9871 34.909 24.409C34.4871 24.831 34.25 25.4033 34.25 26C34.25 26.5967 34.4871 27.169 34.909 27.591C35.331 28.0129 35.9033 28.25 36.5 28.25H37.25V37.9644L25.7844 57.0706C25.443 57.6397 25.2587 58.2891 25.2503 58.9527C25.2419 59.6162 25.4098 60.2702 25.7368 60.8476C26.0637 61.4251 26.5381 61.9055 27.1114 62.2397C27.6847 62.5739 28.3364 62.75 29 62.75H59C59.6637 62.75 60.3154 62.5739 60.8887 62.2397C61.462 61.9055 61.9364 61.4251 62.2633 60.8476C62.5903 60.2702 62.7581 59.6162 62.7498 58.9527C62.7414 58.2891 62.5571 57.6397 62.2157 57.0706ZM46.25 28.25V38.5887C46.2502 38.9963 46.361 39.3962 46.5707 39.7456L53.1575 50.7219C51.1344 50.8831 48.4419 50.4762 45.0163 48.7419C42.3913 47.4144 39.8675 46.6175 37.4657 46.3494L41.4294 39.7456C41.6391 39.3962 41.7499 38.9963 41.75 38.5887V28.25H46.25ZM30.3238 58.25L34.8125 50.7856C37.25 50.5775 39.9913 51.2394 42.9913 52.7581C46.6682 54.6181 49.7882 55.2538 52.3382 55.2538C53.4517 55.2581 54.5619 55.131 55.6457 54.875L57.6763 58.25H30.3238Z" fill="#124234"/>
</svg>
