<svg width="184" height="70" viewBox="0 0 184 70" fill="none" xmlns="http://www.w3.org/2000/svg">
<path d="M0.0687729 64.0689H1.89629V69.8934H0.0687729V64.0689Z" fill="#006D3A"/>
<path d="M4.91269 64.0689L7.13323 67.2864V64.0689H8.85267V69.8934H7.13323L4.92251 66.6953V69.8934H3.20307V64.0689H4.91269Z" fill="#006D3A"/>
<path d="M10.0907 64.0689H12.8025C13.333 64.0689 13.7654 64.1368 14.0994 64.2822C14.4237 64.4275 14.6988 64.631 14.9149 64.9024C15.1311 65.1737 15.2883 65.4839 15.3865 65.8328C15.4848 66.1913 15.5339 66.5596 15.5339 66.9569C15.5339 67.5772 15.4652 68.0617 15.3178 68.4009C15.1704 68.7401 14.9739 69.0309 14.7184 69.2635C14.463 69.496 14.1879 69.6511 13.8931 69.7286C13.4902 69.8352 13.1267 69.8837 12.8025 69.8837H10.0907V64.0592V64.0689ZM11.9182 65.3869V68.5657H12.3603C12.7435 68.5657 13.0088 68.5269 13.1758 68.4397C13.333 68.3525 13.4608 68.2071 13.559 68.0036C13.6475 67.8001 13.6966 67.4609 13.6966 66.9957C13.6966 66.5305 13.5983 65.9587 13.392 65.7261C13.1857 65.5032 12.8516 65.3869 12.38 65.3869H11.9182Z" fill="#006D3A"/>
<path d="M20.3287 64.0689H22.1464V67.5384C22.1464 67.8776 22.0875 68.2071 21.9794 68.5172C21.8713 68.8273 21.7043 69.089 21.4685 69.3216C21.2327 69.5542 20.9968 69.7093 20.7414 69.8062C20.3877 69.9322 19.9652 70 19.4641 70C18.963 70 18.8647 69.9806 18.5208 69.9418C18.177 69.9031 17.9018 69.8256 17.666 69.7093C17.4401 69.593 17.2337 69.4282 17.0372 69.2053C16.8505 68.9921 16.7228 68.7692 16.6442 68.5366C16.5361 68.1683 16.4772 67.8388 16.4772 67.5481V64.0786H18.2949V67.6256C18.2949 67.9454 18.3833 68.1877 18.5602 68.3719C18.737 68.5463 18.9826 68.6432 19.3069 68.6432C19.6311 68.6432 19.8669 68.556 20.0438 68.3815C20.2206 68.2071 20.3091 67.9551 20.3091 67.6353V64.0883L20.3287 64.0689ZM19.2676 62.528H20.6726L19.3757 63.7201H18.5896L19.2676 62.528Z" fill="#006D3A"/>
<path d="M23.0307 67.9648L24.7698 67.8582C24.8091 68.1393 24.8877 68.3525 24.9958 68.4978C25.1825 68.7304 25.4477 68.8467 25.8015 68.8467C26.1552 68.8467 26.2633 68.7886 26.4008 68.6626C26.5384 68.5366 26.617 68.4009 26.617 68.2459C26.617 68.0908 26.5482 67.9551 26.4205 67.8388C26.2829 67.7225 25.9783 67.6062 25.487 67.4996C24.6912 67.3252 24.1213 67.0829 23.7774 66.7922C23.4335 66.5014 23.2665 66.1235 23.2665 65.668C23.2665 65.2125 23.3549 65.0865 23.5318 64.8249C23.7087 64.5632 23.9739 64.35 24.3277 64.1949C24.6814 64.0399 25.1628 63.9623 25.7818 63.9623C26.4008 63.9623 27.1082 64.098 27.5111 64.3791C27.9041 64.6601 28.1399 65.0962 28.2185 65.6971L26.4991 65.794C26.4499 65.5323 26.3615 65.3385 26.2141 65.2222C26.0667 65.1059 25.8702 65.0478 25.6049 65.0478C25.3397 65.0478 25.2316 65.0962 25.1235 65.1834C25.0154 65.2707 24.9663 65.3773 24.9663 65.5033C24.9663 65.6292 25.0056 65.6777 25.1039 65.7552C25.1923 65.8327 25.3888 65.9006 25.713 65.9684C26.5089 66.1332 27.0788 66.3076 27.4226 66.4821C27.7665 66.6565 28.022 66.8697 28.1792 67.1314C28.3364 67.3833 28.415 67.6741 28.415 67.9939C28.415 68.3137 28.3069 68.7111 28.1006 69.0309C27.8943 69.3507 27.5995 69.5833 27.2261 69.748C26.8528 69.9128 26.3812 69.9903 25.8015 69.9903C24.7993 69.9903 24.1017 69.7965 23.7185 69.4185C23.3353 69.0406 23.1093 68.556 23.0602 67.9648H23.0307Z" fill="#006D3A"/>
<path d="M28.8866 64.0689H34.4282V65.5033H32.5711V69.8837H30.7436V65.5033H28.8866V64.0689Z" fill="#006D3A"/>
<path d="M35.283 69.8934V64.0689H38.319C38.879 64.0689 39.3114 64.1174 39.616 64.2143C39.9107 64.3112 40.1563 64.4857 40.3332 64.7473C40.5199 65.009 40.6083 65.3191 40.6083 65.6874C40.6083 66.0557 40.5395 66.2882 40.402 66.5208C40.2644 66.7534 40.0679 66.9473 39.8223 67.0926C39.6651 67.1895 39.4489 67.2671 39.1836 67.3252C39.3998 67.393 39.557 67.4706 39.6553 67.5384C39.724 67.5869 39.8223 67.6838 39.95 67.8485C40.0777 68.0036 40.1662 68.1296 40.2055 68.2071L41.0898 69.8934H39.0264L38.0537 68.1102C37.926 67.8776 37.8179 67.7322 37.7197 67.6644C37.5919 67.5772 37.4347 67.5287 37.2775 67.5287H37.1203V69.8934H35.283ZM37.1203 66.4336H37.8867C37.9653 66.4336 38.1323 66.4045 38.3681 66.3561C38.486 66.3367 38.5843 66.2689 38.6629 66.172C38.7415 66.075 38.7808 65.9587 38.7808 65.8328C38.7808 65.6486 38.7218 65.5033 38.6039 65.3966C38.486 65.29 38.26 65.2416 37.926 65.2416H37.1203V66.4336Z" fill="#006D3A"/>
<path d="M41.7481 64.0689H43.5756V69.8934H41.7481V64.0689Z" fill="#006D3A"/>
<path d="M48.5079 68.934H46.4348L46.1498 69.8934H44.283L46.5035 64.0689H48.4883L50.7088 69.8934H48.8027L48.5079 68.934ZM48.1346 67.6741L47.4861 65.5808L46.8376 67.6741H48.1346Z" fill="#006D3A"/>
<path d="M54.0691 64.0689H56.7809C57.3115 64.0689 57.7438 64.1368 58.0779 64.2822C58.4021 64.4275 58.6772 64.631 58.8934 64.9024C59.1095 65.1737 59.2667 65.4839 59.365 65.8328C59.4632 66.1913 59.5124 66.5596 59.5124 66.9569C59.5124 67.5772 59.4436 68.0617 59.2962 68.4009C59.1488 68.7401 58.9523 69.0309 58.6969 69.2635C58.4414 69.496 58.1663 69.6511 57.8715 69.7286C57.4687 69.8352 57.1051 69.8837 56.7809 69.8837H54.0691V64.0592V64.0689ZM55.8966 65.3869V68.5657H56.3388C56.722 68.5657 56.9872 68.5269 57.1543 68.4397C57.3213 68.3525 57.4392 68.2071 57.5375 68.0036C57.6259 67.8001 57.675 67.4609 57.675 66.9957C57.675 66.5305 57.5768 65.9587 57.3704 65.7261C57.1641 65.5032 56.83 65.3869 56.3584 65.3869H55.8966Z" fill="#006D3A"/>
<path d="M60.4556 64.0689H65.3388V65.3094H62.2831V66.2301H65.1227V67.4221H62.2831V68.5657H65.4272V69.8837H60.4556V64.0592V64.0689Z" fill="#006D3A"/>
<path d="M69.1707 64.0689H72.5801C73.15 64.0689 73.5823 64.2046 73.8869 64.4857C74.1915 64.7667 74.3487 65.1059 74.3487 65.5226C74.3487 65.9394 74.2406 66.1622 74.0245 66.4045C73.8771 66.5693 73.6707 66.6953 73.3858 66.7922C73.8083 66.8891 74.1227 67.0635 74.3192 67.3058C74.5157 67.5481 74.6238 67.8582 74.6238 68.2265C74.6238 68.5948 74.555 68.7983 74.4076 69.0406C74.2701 69.2828 74.0736 69.4767 73.8279 69.6124C73.6707 69.6996 73.4448 69.7674 73.1402 69.8062C72.7275 69.8546 72.4524 69.8837 72.3247 69.8837H69.1805V64.0592L69.1707 64.0689ZM71.0081 66.3561H71.8039C72.0889 66.3561 72.2854 66.3076 72.3934 66.2107C72.5015 66.1138 72.5605 65.9781 72.5605 65.794C72.5605 65.6099 72.5015 65.4936 72.3934 65.3966C72.2854 65.2997 72.0889 65.2513 71.8137 65.2513H71.0081V66.3561ZM71.0081 68.6432H71.9415C72.2559 68.6432 72.472 68.5851 72.6096 68.4785C72.7373 68.3719 72.8061 68.2168 72.8061 68.0327C72.8061 67.8485 72.7472 67.7225 72.6194 67.6159C72.4917 67.5093 72.2657 67.4609 71.9513 67.4609H71.0277V68.6432H71.0081Z" fill="#006D3A"/>
<path d="M75.3411 66.986C75.3411 66.0363 75.6063 65.2997 76.1467 64.7667C76.6871 64.2337 77.4339 63.972 78.3869 63.972C79.34 63.972 80.126 64.2337 80.6566 64.757C81.1872 65.2803 81.4524 66.0072 81.4524 66.9473C81.4524 67.8873 81.3345 68.1877 81.1086 68.6238C80.8727 69.0599 80.5387 69.3991 80.1064 69.6414C79.6642 69.8837 79.1238 70 78.4655 70C77.8072 70 77.2472 69.8934 76.8149 69.6899C76.3825 69.4767 76.0288 69.1472 75.7537 68.7014C75.4786 68.2459 75.3509 67.6838 75.3509 67.0054L75.3411 66.986ZM77.1686 66.9957C77.1686 67.5869 77.2767 68.0036 77.5026 68.2653C77.7286 68.5172 78.0234 68.6529 78.4066 68.6529C78.7898 68.6529 79.1042 68.5269 79.3203 68.2749C79.5365 68.023 79.6446 67.5675 79.6446 66.9182C79.6446 66.2689 79.5365 65.9684 79.3105 65.7165C79.0845 65.4645 78.7799 65.3385 78.3968 65.3385C78.0136 65.3385 77.7384 65.4645 77.5125 65.7261C77.2865 65.9781 77.1784 66.4045 77.1784 67.0054L77.1686 66.9957Z" fill="#006D3A"/>
<path d="M82.4645 69.8934V64.0689H85.5005C86.0606 64.0689 86.4929 64.1174 86.7975 64.2143C87.0922 64.3112 87.3379 64.4857 87.5147 64.7473C87.7014 65.009 87.7898 65.3191 87.7898 65.6874C87.7898 66.0557 87.721 66.2882 87.5835 66.5208C87.4459 66.7534 87.2494 66.9473 87.0038 67.0926C86.8466 67.1895 86.6304 67.2671 86.3651 67.3252C86.5813 67.393 86.7385 67.4706 86.8368 67.5384C86.9055 67.5869 87.0038 67.6838 87.1315 67.8485C87.2592 68.0036 87.3477 68.1296 87.387 68.2071L88.2713 69.8934H86.2079L85.2352 68.1102C85.1075 67.8776 84.9994 67.7322 84.9012 67.6644C84.7734 67.5772 84.6162 67.5287 84.4492 67.5287H84.292V69.8934H82.4645ZM84.3018 66.4336H85.0682C85.1468 66.4336 85.3138 66.4045 85.5496 66.3561C85.6675 66.3367 85.7658 66.2689 85.8444 66.172C85.923 66.075 85.9623 65.9587 85.9623 65.8328C85.9623 65.6486 85.9034 65.5033 85.7854 65.3966C85.6675 65.2997 85.4416 65.2416 85.1075 65.2416H84.3018V66.4336Z" fill="#006D3A"/>
<path d="M88.8804 69.8934V64.0689H91.9165C92.4765 64.0689 92.9088 64.1174 93.2134 64.2143C93.5082 64.3112 93.7538 64.4857 93.9307 64.7473C94.1174 65.009 94.2058 65.3191 94.2058 65.6874C94.2058 66.0557 94.137 66.2882 93.9995 66.5208C93.8619 66.7534 93.6654 66.9473 93.4198 67.0926C93.2626 67.1895 93.0464 67.2671 92.7811 67.3252C92.9973 67.393 93.1545 67.4706 93.2527 67.5384C93.3215 67.5869 93.4198 67.6838 93.5475 67.8485C93.6752 68.0036 93.7637 68.1296 93.803 68.2071L94.6872 69.8934H92.6239L91.6512 68.1102C91.5235 67.8776 91.4154 67.7322 91.3171 67.6644C91.1894 67.5772 91.0322 67.5287 90.8652 67.5287H90.708V69.8934H88.8804ZM90.708 66.4336H91.4743C91.5529 66.4336 91.72 66.4045 91.9558 66.3561C92.0737 66.3367 92.1719 66.2689 92.2505 66.172C92.3291 66.075 92.3685 65.9587 92.3685 65.8328C92.3685 65.6486 92.3095 65.5033 92.1916 65.3966C92.0737 65.2997 91.8477 65.2416 91.5136 65.2416H90.708V66.4336Z" fill="#006D3A"/>
<path d="M98.9023 68.934H96.8292L96.5442 69.8934H94.6774L96.8979 64.0689H98.8827L101.103 69.8934H99.1971L98.9023 68.934ZM98.5191 67.6741L97.8707 65.5808L97.2222 67.6741H98.5191Z" fill="#006D3A"/>
<path d="M105.466 67.5093L107.067 67.9842C106.959 68.43 106.792 68.7983 106.556 69.089C106.321 69.3894 106.036 69.6124 105.692 69.7577C105.348 69.9128 104.915 69.9806 104.385 69.9806C103.854 69.9806 103.216 69.8837 102.813 69.7093C102.41 69.5251 102.056 69.2053 101.762 68.7401C101.467 68.275 101.319 67.6838 101.319 66.9666C101.319 66.2495 101.575 65.261 102.096 64.7473C102.616 64.2337 103.353 63.972 104.296 63.972C105.24 63.972 105.623 64.1174 106.045 64.4178C106.468 64.7182 106.782 65.1738 106.989 65.7843L105.377 66.1332C105.318 65.9587 105.259 65.8231 105.2 65.7455C105.102 65.6099 104.974 65.5032 104.827 65.4257C104.68 65.3482 104.513 65.3191 104.336 65.3191C103.923 65.3191 103.609 65.4839 103.383 65.8134C103.216 66.0556 103.137 66.4433 103.137 66.9569C103.137 67.4706 103.235 68.0424 103.432 68.2846C103.628 68.5269 103.913 68.6432 104.267 68.6432C104.621 68.6432 104.876 68.5463 105.063 68.3525C105.24 68.1587 105.367 67.8776 105.456 67.5093H105.466Z" fill="#006D3A"/>
<path d="M107.952 64.0689H109.779V66.1041H111.774V64.0689H113.601V69.8934H111.774V67.5384H109.779V69.8934H107.952V64.0689Z" fill="#006D3A"/>
<path d="M118.445 68.934H116.372L116.087 69.8934H114.22L116.441 64.0689H118.425L120.646 69.8934H118.74L118.445 68.934ZM118.062 67.6741L117.413 65.5808L116.765 67.6741H118.062Z" fill="#006D3A"/>
<path d="M124.006 69.8934V64.0689H127.042C127.602 64.0689 128.035 64.1174 128.339 64.2143C128.634 64.3112 128.88 64.4857 129.056 64.7473C129.243 65.009 129.332 65.3191 129.332 65.6874C129.332 66.0557 129.263 66.2882 129.125 66.5208C128.988 66.7534 128.791 66.9473 128.546 67.0926C128.388 67.1895 128.172 67.2671 127.907 67.3252C128.123 67.393 128.28 67.4706 128.378 67.5384C128.447 67.5869 128.546 67.6838 128.673 67.8485C128.801 68.0036 128.889 68.1296 128.929 68.2071L129.813 69.8934H127.75L126.777 68.1102C126.649 67.8776 126.541 67.7322 126.443 67.6644C126.315 67.5772 126.158 67.5287 125.991 67.5287H125.834V69.8934H124.006ZM125.834 66.4336H126.6C126.679 66.4336 126.846 66.4045 127.082 66.3561C127.199 66.3367 127.298 66.2689 127.376 66.172C127.455 66.075 127.494 65.9587 127.494 65.8328C127.494 65.6486 127.435 65.5033 127.317 65.3966C127.199 65.2997 126.973 65.2416 126.639 65.2416H125.834V66.4336Z" fill="#006D3A"/>
<path d="M130.383 64.0689H135.266V65.3094H132.21V66.2301H135.05V67.4221H132.21V68.5657H135.355V69.8837H130.383V64.0592V64.0689Z" fill="#006D3A"/>
<path d="M136.416 64.0689H138.243V69.8934H136.416V64.0689Z" fill="#006D3A"/>
<path d="M140.876 64.0689L142.203 68.2556L143.51 64.0689H145.357L143.166 69.8934H141.191L138.96 64.0689H140.876Z" fill="#006D3A"/>
<path d="M149.12 68.934H147.047L146.762 69.8934H144.895L147.115 64.0689H149.1L151.321 69.8934H149.415L149.12 68.934ZM148.747 67.6741L148.098 65.5808L147.45 67.6741H148.747Z" fill="#006D3A"/>
<path d="M153.512 64.0689L154.553 65.8618L155.565 64.0689H157.55L155.713 66.8891L157.727 69.8934H155.673L154.504 68.023L153.335 69.8934H151.301L153.335 66.86L151.488 64.0689H153.512Z" fill="#006D3A"/>
<path d="M161.068 64.0689H162.895V68.4591H165.744V69.8934H161.077V64.0689H161.068Z" fill="#006D3A"/>
<path d="M165.735 64.0689H171.276V65.5033H169.419V69.8837H167.592V65.5033H165.735V64.0689Z" fill="#006D3A"/>
<path d="M172.131 64.0689H174.843C175.373 64.0689 175.806 64.1368 176.14 64.2822C176.464 64.4275 176.739 64.631 176.955 64.9024C177.171 65.1737 177.329 65.4839 177.427 65.8328C177.525 66.1913 177.574 66.5596 177.574 66.9569C177.574 67.5772 177.505 68.0617 177.358 68.4009C177.211 68.7401 177.014 69.0309 176.759 69.2635C176.503 69.496 176.228 69.6511 175.933 69.7286C175.531 69.8352 175.167 69.8837 174.843 69.8837H172.131V64.0592V64.0689ZM173.958 65.3869V68.5657H174.41C174.794 68.5657 175.059 68.5269 175.226 68.4397C175.383 68.3525 175.511 68.2071 175.609 68.0036C175.698 67.8001 175.747 67.4609 175.747 66.9957C175.747 66.5305 175.648 65.9587 175.442 65.7261C175.236 65.5032 174.902 65.3869 174.43 65.3869H173.958Z" fill="#006D3A"/>
<path d="M181.799 68.934H179.726L179.441 69.8934H177.574L179.795 64.0689H181.779L184 69.8934H182.094L181.799 68.934ZM181.416 67.6741L180.767 65.5808L180.119 67.6741H181.416Z" fill="#006D3A"/>
<path d="M52.4479 45.8881C52.4479 45.8881 56.9774 44.5798 56.6335 38.1933C56.4075 33.997 53.961 33.8031 52.3005 34.1617C51.5636 34.3265 50.866 34.6366 50.2372 35.0533L38.486 42.7385L38.5352 55.5309V55.8508L45.0199 55.8314L44.9904 49.1153C45.6389 48.4757 46.6116 48.466 46.6116 48.466C50.5123 51.9742 51.5047 55.8023 51.5047 55.8023L57.9894 55.7829C57.9698 50.6659 52.4381 45.8881 52.4381 45.8881H52.4479ZM44.9806 45.5974V42.0795C44.9708 42.0795 48.8518 39.8214 48.8518 39.8214C48.8518 39.8214 50.6302 38.8523 50.64 41.5755C50.6499 44.2988 44.9806 45.5974 44.9806 45.5974Z" fill="#006D3A"/>
<path d="M60.4851 29.2288L60.5932 56.093L76.805 56.0349L76.7657 47.0802L66.7242 48.718L66.7046 42.9614L76.0878 40.0443L76.0681 32.6886L66.6751 36.2453L66.6554 31.768L76.6871 26.2924L76.6577 18.6169L60.4851 29.2288Z" fill="#006D3A"/>
<path d="M79.9 17.0082L86.0409 12.8215L86.2079 56.0058L79.3989 56.0252L79.9 17.0082Z" fill="#006D3A"/>
<path d="M88.5464 11.678C88.5464 11.678 93.0169 9.28423 94.7069 9.11948C94.7069 10.7185 98.7943 42.5253 98.7943 42.5253L103.55 14.6823L109.396 18.1808L102.086 55.9477L95.2768 55.9767L88.5464 11.6877V11.678Z" fill="#006D3A"/>
<path d="M141.299 47.1577C141.299 47.1577 143.677 44.6186 146.791 42.9808C146.791 42.9808 141.269 39.4822 140.611 38.8426C139.127 40.461 137.182 42.6997 137.182 42.6997L133.134 34.3943C133.134 34.3943 127.612 30.8957 126.63 30.2561C126.63 31.8552 131.867 42.3896 132.849 44.9481C131.022 47.8167 126.404 54.2517 126.404 54.2517L119.811 25.1682L113.631 21.03L105.407 56.1318H112.216L113.09 50.4624L119.575 51.0826L120.636 56.1415H132.888C132.888 56.1512 136.76 50.0651 136.76 50.0651L140.307 56.1706C140.307 56.1706 145.494 56.1512 147.764 56.1415C145.612 53.9028 141.289 47.807 141.289 47.1674L141.299 47.1577ZM114.043 43.4266L116.912 31.5838L118.583 44.0468L114.043 43.4266Z" fill="#006D3A"/>
<path d="M183.971 60.1343H0L92.28 0L92.732 0.290738L183.98 60.1246L183.971 60.1343ZM5.39414 58.5352H178.606L92.28 1.91887L5.39414 58.5352Z" fill="#006D3A"/>
</svg>
