<svg width="116" height="16" viewBox="0 0 116 16" fill="none" xmlns="http://www.w3.org/2000/svg">
<path d="M8 12.8589L12.944 16L11.632 10.08L16 6.09684L10.248 5.58316L8 0L5.752 5.58316L0 6.09684L4.368 10.08L3.056 16L8 12.8589Z" fill="#FBBC04"/>
<path d="M27.2 12.8589L32.144 16L30.832 10.08L35.2 6.09684L29.448 5.58316L27.2 0L24.952 5.58316L19.2 6.09684L23.568 10.08L22.256 16L27.2 12.8589Z" fill="#FBBC04"/>
<path d="M46.4 12.8589L51.344 16L50.032 10.08L54.4 6.09684L48.648 5.58316L46.4 0L44.152 5.58316L38.4 6.09684L42.768 10.08L41.456 16L46.4 12.8589Z" fill="#FBBC04"/>
<path d="M65.6 12.8589L70.544 16L69.232 10.08L73.6 6.09684L67.848 5.58316L65.6 0L63.352 5.58316L57.6 6.09684L61.968 10.08L60.656 16L65.6 12.8589Z" fill="#FBBC04"/>
<path d="M84.8 12.8589L89.744 16L88.432 10.08L92.8 6.09684L87.048 5.58316L84.8 0L82.552 5.58316L76.8 6.09684L81.168 10.08L79.856 16L84.8 12.8589Z" fill="#FBBC04"/>
<path fill-rule="evenodd" clip-rule="evenodd" d="M105.274 0.960218C105.079 1.12624 104.982 1.20927 104.878 1.27899C104.639 1.43883 104.371 1.54977 104.09 1.60538C103.967 1.62964 103.839 1.63982 103.584 1.66018C102.943 1.71135 102.622 1.73692 102.355 1.83139C101.736 2.04987 101.25 2.53641 101.031 3.15497C100.937 3.4224 100.911 3.74296 100.86 4.38407C100.84 4.63923 100.83 4.76681 100.805 4.88968C100.75 5.17134 100.639 5.43917 100.479 5.67765C100.409 5.78169 100.326 5.8791 100.16 6.07392C99.7431 6.56344 99.5345 6.80816 99.4122 7.06408C99.1293 7.656 99.1293 8.344 99.4122 8.93592C99.5345 9.19184 99.7431 9.43656 100.16 9.92608C100.326 10.1209 100.409 10.2183 100.479 10.3223C100.639 10.5608 100.75 10.8286 100.805 11.1103C100.83 11.2332 100.84 11.3608 100.86 11.6159C100.911 12.257 100.937 12.5776 101.031 12.845C101.25 13.4636 101.736 13.9502 102.355 14.1686C102.622 14.263 102.943 14.2886 103.584 14.3398C103.839 14.3602 103.967 14.3704 104.09 14.3946C104.371 14.4502 104.639 14.5612 104.878 14.721C104.982 14.7907 105.079 14.8738 105.274 15.0398C105.763 15.457 106.008 15.6655 106.264 15.7878C106.856 16.0707 107.544 16.0707 108.136 15.7878C108.392 15.6655 108.637 15.457 109.126 15.0398C109.321 14.8738 109.418 14.7907 109.522 14.721C109.761 14.5612 110.029 14.4502 110.31 14.3946C110.433 14.3704 110.561 14.3602 110.816 14.3398C111.457 14.2886 111.778 14.263 112.045 14.1686C112.664 13.9502 113.15 13.4636 113.369 12.845C113.463 12.5776 113.489 12.257 113.54 11.6159C113.56 11.3608 113.57 11.2332 113.595 11.1103C113.65 10.8286 113.761 10.5608 113.921 10.3223C113.991 10.2183 114.074 10.1209 114.24 9.92608C114.657 9.43656 114.866 9.19184 114.988 8.93592C115.271 8.344 115.271 7.656 114.988 7.06408C114.866 6.80816 114.657 6.56344 114.24 6.07392C114.074 5.8791 113.991 5.78169 113.921 5.67765C113.761 5.43917 113.65 5.17134 113.595 4.88968C113.57 4.76681 113.56 4.63923 113.54 4.38407C113.489 3.74296 113.463 3.4224 113.369 3.15497C113.15 2.53641 112.664 2.04987 112.045 1.83139C111.778 1.73692 111.457 1.71135 110.816 1.66018C110.561 1.63982 110.433 1.62964 110.31 1.60538C110.029 1.54977 109.761 1.43883 109.522 1.27899C109.418 1.20927 109.321 1.12625 109.126 0.960218C108.637 0.543066 108.392 0.33449 108.136 0.212178C107.544 -0.070726 106.856 -0.070726 106.264 0.212178C106.008 0.334482 105.763 0.543066 105.274 0.960218ZM110.699 6.29051C110.953 6.03624 110.953 5.624 110.699 5.36973C110.445 5.11546 110.032 5.11546 109.778 5.36973L105.898 9.24992L104.622 7.97408C104.368 7.71984 103.955 7.71984 103.701 7.97408C103.447 8.22832 103.447 8.64056 103.701 8.89488L105.437 10.6311C105.692 10.8854 106.104 10.8854 106.358 10.6311L110.699 6.29051Z" fill="#4688F4"/>
</svg>
